<svg width="24" height="25" viewBox="0 0 24 25" fill="none" xmlns="http://www.w3.org/2000/svg">
<path d="M0.9375 18.9844C0.9375 19.8398 1.59375 20.4023 2.70703 20.4023H7.65234C7.74609 22.6641 9.51562 24.6445 11.9883 24.6445C14.4727 24.6445 16.2422 22.6758 16.3359 20.4023H21.2812C22.3828 20.4023 23.0508 19.8398 23.0508 18.9844C23.0508 17.8125 21.8555 16.7578 20.8477 15.7148C20.0742 14.9062 19.8633 13.2422 19.7695 11.8945C19.6875 7.27734 18.4922 4.30078 15.375 3.17578C14.9766 1.64062 13.7227 0.433594 11.9883 0.433594C10.2656 0.433594 9 1.64062 8.61328 3.17578C5.49609 4.30078 4.30078 7.27734 4.21875 11.8945C4.125 13.2422 3.91406 14.9062 3.14062 15.7148C2.12109 16.7578 0.9375 17.8125 0.9375 18.9844ZM3.21094 18.6328V18.4922C3.42188 18.1523 4.125 17.4609 4.73438 16.7812C5.57812 15.8438 5.97656 14.332 6.08203 12.0469C6.17578 6.92578 7.69922 5.29688 9.70312 4.74609C9.99609 4.67578 10.1602 4.53516 10.1719 4.23047C10.207 3.01172 10.9102 2.15625 11.9883 2.15625C13.0781 2.15625 13.7695 3.01172 13.8164 4.23047C13.8281 4.53516 13.9805 4.67578 14.2734 4.74609C16.2891 5.29688 17.8125 6.92578 17.9062 12.0469C18.0117 14.332 18.4102 15.8438 19.2422 16.7812C19.8633 17.4609 20.5547 18.1523 20.7656 18.4922V18.6328H3.21094ZM9.48047 20.4023H14.5078C14.4141 21.9961 13.4062 22.9922 11.9883 22.9922C10.582 22.9922 9.5625 21.9961 9.48047 20.4023Z" fill="#3356D7"/>
</svg>
